<svg xmlns="http://www.w3.org/2000/svg" xmlns:xlink="http://www.w3.org/1999/xlink" id="Layer_1" x="0px" y="0px" viewBox="0 0 96 120" style="enable-background:new 0 0 96 120;" xml:space="preserve"><style type="text/css">	.st0{fill:#3B34FD;}	.st1{display:none;enable-background:new    ;}	.st2{font-family:'HelveticaNeue-Bold';}	.st3{font-size:5px;}</style><path class="st0" d="M90.1,39.9L77.8,8.2c-0.9-2.4-3.6-3.6-6-2.7L14.3,27.8c-2.4,0.9-3.6,3.6-2.7,6L21.7,60c-1,1.6-1.8,3.3-2.6,4.8 c-0.6,1.2-1.1,2.3-1.7,3.4c-1.1-0.3-2.2,0.1-2.8,1l-2.1,2.9c-0.2,0-0.5,0-0.7,0c-0.7,0.1-1.4,0.5-1.8,1.1l-2.7,3.9 c-0.8,1.2-0.6,2.9,0.6,3.8L27,97.6c0.5,0.4,1,0.6,1.7,0.6c0.1,0,0.2,0,0.3,0c0.8-0.1,1.5-0.5,2-1.2l4.2-6.1c0.6-0.9,0.7-2,0.2-2.9 l2-2.9c0.4-0.6,0.6-1.3,0.4-2c-0.1-0.4-0.2-0.7-0.4-1c0.4-0.3,0.8-0.5,1.2-0.8c1.6-1,4-2.4,6.8-3.9c6.5-3.6,14.5-8,17.8-11.8 c0.1-0.1,0.2-0.3,0.3-0.5c0.7-2.4,1.5-6.5,2.2-10.9l21.6-8.4C89.8,45,91,42.3,90.1,39.9L90.1,39.9z M16.7,70.6c0,0,0.1-0.1,0.1,0 l18.5,13c0,0,0,0,0,0.1c0,0,0,0,0,0.1l-1.8,2.6L14.8,73.3L16.7,70.6z M33.2,89.5l-4.2,6.1c-0.1,0.1-0.1,0.1-0.2,0.1L9.6,79.1 c-0.1-0.1-0.3-0.3-0.2-0.4l0,0l2.7-3.9c0-0.1,0.1-0.1,0.2-0.1c0.1,0,0.1,0,0.2,0l20.6,14.5C33.2,89.2,33.2,89.4,33.2,89.5z  M61.2,64.2c-3.1,3.4-10.8,7.6-16.9,11c-2.8,1.6-5.3,2.9-6.9,4c-0.7,0.5-1.4,0.9-1.9,1.3L19.6,69.5c0.6-1.1,1.2-2.3,1.8-3.6 c2-4.1,4.1-8.4,8.5-10.5c3.3-1.5,5.3-2.3,6.7-2.9c3.5-1.4,4.1-1.7,11.6-7.3c2.3-1.7,4.7-1.2,5.8,0.3c1.3,1.7,0.4,4.1-2.2,6.1l0,0 l-9.6,8l0,0l-3.7,3.3c-0.5,0.5-0.5,1.3-0.1,1.8c0.4,0.4,0.9,0.5,1.4,0.3L63,55.4C62.4,59,61.7,62.2,61.2,64.2z M46.8,43.2l-0.5,0.3 c-3.7-2.5-4.7-7.6-2.2-11.3c2.5-3.7,7.6-4.7,11.3-2.2s4.7,7.6,2.2,11.3c-0.5,0.8-1.2,1.5-2,2c-0.4-0.4-0.8-0.7-1.3-1 c0-0.1,0-0.2-0.1-0.3L54,41.5c0.4-0.3,0.7-0.7,0.9-1.1c0.5-0.8,0.5-1.8,0.2-2.7L55,37.5c-0.9-2.4-3.2-2.1-4.4-1.9 c-1.4,0.2-1.5,0.1-1.6-0.3l-0.1-0.2c-0.1-0.4,0.1-0.9,0.8-1.2c0.5-0.3,1.1-0.1,1.4,0.3c0.3,0.7,1,1,1.6,0.7c0.7-0.3,1-1,0.7-1.6l0,0 c-0.6-1.3-1.9-2.2-3.4-2.1l-0.2-0.6c-0.3-0.7-1-1-1.6-0.7c-0.7,0.3-1,1-0.7,1.6l0.2,0.6c-1.2,0.9-1.6,2.4-1.1,3.8l0.1,0.2 c0.9,2.4,3.2,2.1,4.4,1.9c1.4-0.2,1.5-0.1,1.6,0.3l0.1,0.2c0.1,0.2,0,0.4-0.1,0.6c-0.2,0.3-0.4,0.5-0.7,0.6 c-0.5,0.3-1.1,0.1-1.4-0.3c-0.2-0.7-1-1-1.6-0.8s-1,1-0.8,1.6c0,0,0,0,0,0.1c0.2,0.6,0.7,1.2,1.3,1.5C48.5,42.2,47.6,42.6,46.8,43.2 z M56.9,45.6c4.8-3.4,6-10,2.7-14.8s-10-6-14.8-2.7s-6,10-2.7,14.8c0.6,0.8,1.3,1.6,2.1,2.2c-5,3.7-5.7,3.9-8.5,5.1 c-1.4,0.6-3.3,1.3-6.6,2.8l-5.2-13.5c1.9-1.6,2.9-3.9,2.8-6.4l39.4-15.3c1.6,1.9,3.9,2.9,6.4,2.8l5.3,13.6c-1.9,1.6-2.9,3.9-2.8,6.4 l-17.8,6.9C57.2,46.9,57.1,46.2,56.9,45.6L56.9,45.6z M87.7,42.4c-0.2,0.5-0.6,0.9-1.2,1.1l-22.4,8.7L46,59.9l7.5-6.3 c1.1-0.8,2-1.8,2.7-3l20.6-8c0.6-0.2,0.9-0.8,0.8-1.4c-0.3-2.2,0.6-4.3,2.4-5.5c0.5-0.3,0.7-1,0.5-1.5l-6-15.4 c-0.2-0.6-0.8-0.9-1.4-0.8c-2.2,0.3-4.3-0.6-5.5-2.4c-0.3-0.5-1-0.7-1.5-0.5l-41.2,16c-0.6,0.2-0.9,0.8-0.8,1.4 c0.3,2.2-0.6,4.3-2.4,5.5c-0.5,0.3-0.7,1-0.5,1.5l5.7,14.8c-1.3,0.9-2.4,2-3.4,3.2L14,32.9c-0.4-1.1,0.1-2.3,1.2-2.8L72.7,7.9 C73.8,7.5,75,8,75.5,9.1l12.3,31.7C87.9,41.3,87.9,41.9,87.7,42.4z M19.7,32.8c0.3,0.6,0.1,1.4-0.6,1.7c-0.6,0.3-1.4,0.1-1.7-0.6 c-0.3-0.6-0.1-1.4,0.6-1.7l0,0C18.7,31.9,19.4,32.1,19.7,32.8C19.7,32.8,19.7,32.8,19.7,32.8z M73.5,12.1c0.2,0.7-0.1,1.4-0.7,1.6 c-0.7,0.2-1.4-0.1-1.6-0.7c-0.2-0.7,0.1-1.4,0.7-1.6l0,0C72.5,11.1,73.2,11.4,73.5,12.1C73.5,12.1,73.5,12.1,73.5,12.1z M84.3,40 c0.2,0.7-0.1,1.4-0.7,1.6c-0.7,0.2-1.4-0.1-1.6-0.7c-0.2-0.7,0.1-1.4,0.7-1.6c0,0,0,0,0,0l0,0C83.3,39,84,39.3,84.3,40z M36.4,42.5 c0.3,0.7-0.1,1.4-0.7,1.6L30.8,46c-0.7,0.3-1.4-0.1-1.6-0.7c-0.3-0.7,0.1-1.4,0.7-1.6l0,0l4.9-1.9C35.4,41.5,36.1,41.8,36.4,42.5 C36.4,42.5,36.4,42.5,36.4,42.5L36.4,42.5z M65.3,31.3c-0.3-0.7,0.1-1.4,0.7-1.6c0,0,0,0,0,0l4.9-1.9c0.7-0.2,1.4,0.1,1.6,0.8 c0.2,0.6-0.1,1.3-0.7,1.6L66.9,32C66.3,32.2,65.6,31.9,65.3,31.3C65.3,31.3,65.3,31.3,65.3,31.3L65.3,31.3z"></path><text transform="matrix(1 0 0 1 0 111)" class="st1 st2 st3">Created by Rifqi Khoirudin</text><text transform="matrix(1 0 0 1 0 116)" class="st1 st2 st3">from the Noun Project</text></svg>