<svg xmlns="http://www.w3.org/2000/svg" xmlns:xlink="http://www.w3.org/1999/xlink" id="Layer_1" x="0px" y="0px" viewBox="0 0 96 129" style="enable-background:new 0 0 96 129;" xml:space="preserve"><style type="text/css">	.st0{fill:#0B34FD;}	.st1{display:none;enable-background:new    ;}	.st2{font-family:'HelveticaNeue-Bold';}	.st3{font-size:5px;}</style><g>	<path class="st0" d="M15,47.3c-3.8,0-6.6-2.9-6.6-6.6c0-1.2,0.9-2.3,2-2.3s2.3,0.9,2.3,2.3S13.8,43,15,43c1.4,0,2.3-1.2,2.3-2.3  v-0.9c0-1.2-0.9-2.3-2-2.6l-1.7-0.3C10.4,36,8,33.2,8,30v-0.6c0-3.8,2.9-6.6,6.6-6.6s6.6,2.9,6.6,6.6c0,1.2-0.9,2.3-2.3,2.3  s-1.7-1.2-1.7-2.3c0-1.4-1.2-2.6-2.3-2.6c-1.4,0-2.6,1.2-2.6,2.6V30c0,1.2,0.9,2.3,2.3,2.6l1.4,0.6c3.2,0.9,5.5,3.8,5.5,6.9v0.6  C21.6,44.4,18.7,47.3,15,47.3z"></path>	<path class="st0" d="M15,26.8c-1.2,0-2.3-0.9-2.3-2V21c0-1.2,0.9-2.3,2.3-2.3s2,1.2,2,2.3v3.8C17,25.9,16.1,26.8,15,26.8z"></path>	<path class="st0" d="M15,51.1c-1.2,0-2.3-0.9-2.3-2.3V45c0-1.2,0.9-2.3,2.3-2.3s2.3,0.9,2.3,2.3v3.8C17,50.2,16.1,51.1,15,51.1z"></path>	<path class="st0" d="M80.8,94.7c-3.8,0-6.6-2.9-6.6-6.6c0-1.2,0.9-2.3,2.3-2.3c1.4,0,2.3,0.9,2.3,2.3s1.2,2.3,2.3,2.3  c1.2,0,2.3-1.2,2.3-2.3v-0.6c0-1.2-0.9-2.3-2-2.6L79.7,84c-3.2-0.9-5.5-3.5-5.5-6.9v-0.6c0-3.8,2.9-6.6,6.6-6.6  c3.8,0,6.6,2.9,6.6,6.6c0,1.2-0.9,2.3-2.3,2.3s-2.3-0.9-2.3-2.3s-1.2-2.3-2.3-2.3c-1.2,0-2.3,1.2-2.3,2.3v0.6c0,1.2,0.9,2.3,2,2.6  l1.7,0.3c3.2,0.9,5.5,3.5,5.5,6.9v0.6C87.8,91.5,84.6,94.7,80.8,94.7z"></path>	<path class="st0" d="M80.8,74.2c-1.2,0-2.3-0.9-2.3-2.3v-3.8c0-1.2,0.9-2.3,2.3-2.3s2.3,0.9,2.3,2.3v3.8  C83.1,73,82.3,74.2,80.8,74.2z"></path>	<path class="st0" d="M80.8,98.1c-1.2,0-2.3-0.9-2.3-2.3v-3.8c0-1.2,0.9-2.3,2.3-2.3s2.3,0.9,2.3,2.3v4  C83.1,97.3,82.3,98.1,80.8,98.1z"></path>	<path class="st0" d="M39.2,37.2c-1.4,2.9-2.3,6.6-2.9,10.4h-9C30,43,34.3,39.2,39.2,37.2L39.2,37.2z"></path>	<path class="st0" d="M49.6,35.5c1.7,1.7,3.8,6.1,4.6,12.1h-13c1.2-6.1,2.9-10.1,4.6-12.1c0.6,0,1.2,0,1.7,0  C48.2,35.5,49.1,35.5,49.6,35.5L49.6,35.5z"></path>	<path class="st0" d="M68.4,47.6h-9c-0.6-4-1.7-7.5-2.9-10.4C61.5,39.2,65.8,43,68.4,47.6L68.4,47.6z"></path>	<path class="st0" d="M35.8,64.6H25.7c-0.6-2-0.9-4-0.9-6.1s0.3-4,0.9-6.1h10.1c-0.3,2-0.3,4-0.3,6.1S35.5,62.6,35.8,64.6z"></path>	<path class="st0" d="M39.2,79.9c-4.9-2-9.2-5.8-11.8-10.4h9C36.9,73.6,38.1,77.1,39.2,79.9L39.2,79.9z"></path>	<path class="st0" d="M41.6,69.5h13c-1.2,6.1-2.9,10.1-4.6,12.1c-0.6,0-1.2,0-1.7,0c-0.6,0-1.2,0-1.7,0  C44.4,79.7,42.4,75.6,41.6,69.5L41.6,69.5z"></path>	<path class="st0" d="M55.4,58.6c0,2,0,4-0.3,6.1H40.7c-0.3-2-0.3-3.8-0.3-6.1s0-4,0.3-6.1h14.4C55.1,54.5,55.4,56.5,55.4,58.6z"></path>	<path class="st0" d="M59.5,69.5h9c-2.6,4.6-6.6,8.4-11.8,10.4C57.7,77.1,58.9,73.6,59.5,69.5L59.5,69.5z"></path>	<path class="st0" d="M71,58.6c0,2-0.3,4-0.9,6.1H60c0.3-2,0.3-4,0.3-6.1s0-4-0.3-6.1h10.1C70.7,54.5,71,56.5,71,58.6z"></path>	<path class="st0" d="M90.4,69.5c-0.3,0-0.3,0-0.6,0c-1.2-0.3-2-1.4-1.7-2.6c0.6-2.6,0.9-5.5,0.9-8.1c0-22.8-18.5-41.3-41.3-41.3  c-7.5,0-14.7,2-21.4,6.1c-0.6,0.3-2,0-2.6-1.2c-0.6-1.2-0.3-2.3,0.9-2.9c6.9-4.3,15-6.4,23.4-6.4c25.1,0,45.6,20.5,45.6,45.6  c0,3.2-0.3,6.1-0.9,9.2C92.4,68.7,91.2,69.5,90.4,69.5z"></path>	<path class="st0" d="M47.9,104.2c-25.1,0-45.4-20.5-45.4-45.6c0-3.2,0.3-6.1,0.9-9c0.3-1.2,1.2-1.7,2-1.7c1.2-0.3,2,0.9,2,2l0,0  c0,0.3,0,0.3,0,0.6c-0.6,2.6-0.6,5.2-0.6,8.1c0,22.8,18.5,41.3,41.3,41.3c7.5,0,15-2,21.4-6.1c1.2-0.6,2.3-0.3,2.9,0.9  c0.6,1.2,0.3,2.3-0.9,2.9C64.4,101.9,56.3,104.2,47.9,104.2L47.9,104.2z"></path></g><text transform="matrix(1 0 0 1 32 91.5)" class="st1 st2 st3">Created by Iqbal Widianto</text><text transform="matrix(1 0 0 1 32 96.5)" class="st1 st2 st3">from the Noun Project</text></svg>