<svg xmlns="http://www.w3.org/2000/svg" xmlns:xlink="http://www.w3.org/1999/xlink" id="Capa_1" x="0px" y="0px" viewBox="0 0 96 120" style="enable-background:new 0 0 96 120;" xml:space="preserve"><style type="text/css">	.st0{fill:#3B34FD;}</style><g>	<g>		<path class="st0" d="M88.2,74.7l0.1-36.6c0-0.9-0.7-1.5-1.5-1.5l-70.2,0c-0.9,0-1.5-0.7-1.5-1.5v-1.5c0-0.9,0.7-1.5,1.5-1.5h74.8   c0.9,0,1.5,0.7,1.5,1.5v41.1c0,0.9-0.7,1.5-1.5,1.5h-1.6C88.9,76.3,88.2,75.6,88.2,74.7z M81.1,81.7c0-12.2,0.1-24.4,0.1-36.6   c0-0.9-0.7-1.5-1.5-1.5l-70.2,0c-0.9,0-1.5-0.7-1.5-1.5v-1.5c0-0.9,0.7-1.5,1.5-1.5h74.8c0.9,0,1.5,0.7,1.5,1.5v41.1   c0,0.9-0.7,1.5-1.5,1.5h-1.6C81.8,83.3,81.1,82.6,81.1,81.7z M75.6,87.9H6.5c-1.8,0-3.3-1.5-3.3-3.3V49.3c0-1.8,1.5-3.3,3.3-3.3   h69.1c1.8,0,3.3,1.5,3.3,3.3v35.3C78.8,86.4,77.4,87.9,75.6,87.9z M74.1,50.5H7.9v32.7h66.2V50.5L74.1,50.5z M67,79.8L67,79.8   c0,0.6-0.5,1.2-1.1,1.2H41c6.5,0,11.8-6.2,11.8-14c0-7.7-5.3-14-11.8-14h24.9c0.6,0,1.2,0.5,1.1,1.2v0c0,1.9,1.6,3.5,3.6,3.5h0   c0.6,0,1.2,0.5,1.2,1.2v16.3c0,0.6-0.5,1.1-1.2,1.1h0C68.6,76.3,67,77.9,67,79.8z M62.3,63.1c-2,0-3.7,1.6-3.7,3.7   c0,2,1.6,3.7,3.7,3.7c2,0,3.7-1.6,3.7-3.7C66,64.8,64.3,63.1,62.3,63.1z M29.2,67c0,7.7,5.3,14,11.8,14H16.1   c-0.6,0-1.1-0.5-1.1-1.2v0c0-1.9-1.6-3.5-3.5-3.5h0c-0.6,0-1.2-0.5-1.2-1.2V58.8c0-0.6,0.5-1.1,1.2-1.1h0c2,0,3.5-1.6,3.5-3.5v0   c0-0.6,0.5-1.2,1.1-1.2H41C34.5,53,29.2,59.3,29.2,67z M19.8,63.1c-2,0-3.7,1.6-3.7,3.7c0,2,1.6,3.7,3.7,3.7s3.7-1.6,3.7-3.7   C23.4,64.8,21.8,63.1,19.8,63.1z"></path>	</g>	<g>		<path class="st0" d="M39.9,74.9c0-0.2-0.1-0.4-0.4-0.4c-1.8-0.5-2.7-1.8-2.7-3.7v-0.6c0-0.3,0.2-0.5,0.5-0.5H39   c0.3,0,0.5,0.2,0.5,0.5v0.8c0,1,0.6,1.4,1.5,1.4c0.9,0,1.5-0.4,1.5-1.4c0-1.1-0.5-2-2.4-3.3c-2.3-1.6-3.1-2.9-3.1-4.6   c0-1.8,0.9-3.1,2.6-3.6c0.2-0.1,0.4-0.2,0.4-0.4v-0.6c0-0.3,0.2-0.5,0.5-0.5h1.3c0.3,0,0.5,0.2,0.5,0.5v0.6c0,0.2,0.1,0.4,0.4,0.4   c1.8,0.5,2.7,1.8,2.7,3.7l0,0c0,0.3-0.2,0.5-0.5,0.5H43c-0.3,0-0.5-0.2-0.5-0.5v-0.2c0-1-0.5-1.4-1.4-1.4c-0.9,0-1.4,0.4-1.4,1.4   c0,1.1,0.5,1.9,2.4,3.2c2.3,1.6,3.1,2.9,3.1,4.7c0,1.9-0.9,3.3-2.7,3.7c-0.2,0.1-0.4,0.2-0.4,0.4v0.8c0,0.3-0.2,0.5-0.5,0.5h-1.3   c-0.3,0-0.5-0.2-0.5-0.5V74.9L39.9,74.9z"></path>	</g></g></svg>