<svg width="607" height="123" viewBox="0 0 607 123" fill="none" xmlns="http://www.w3.org/2000/svg">
<path d="M135.051 0.4375H137.828L139.988 1.67188L140.914 3.83203L140.605 6.60938L139.062 8.46094L138.445 8.76953L135.051 9.07812L133.816 10.3125H133.199L132.582 11.5469L126.102 18.0273L123.633 20.1875L114.684 29.1367L114.375 29.7539H113.758L113.141 30.9883L110.055 33.7656L87.5273 56.293V94.5586L89.3789 96.7188L89.6875 98.8789L88.7617 101.039L86.9102 102.582H83.8242L81.9727 101.039L81.3555 99.4961L80.7383 96.7188L70.5547 86.5352V85.918L69.3203 85.3008L65.6172 81.5977V80.9805L64.6914 80.6719L62.5312 78.2031L60.3711 76.043L58.8281 74.8086L56.668 72.3398L52.0391 68.0195L49.2617 64.9336L46.1758 61.8477L44.3242 60.9219L42.4727 61.2305L38.4609 64.9336L31.9805 71.4141L30.4375 73.2656L23.3398 80.3633H22.7227L22.4141 81.2891L19.9453 83.4492L12.5391 90.8555L12.2305 91.4727H11.6133L10.9961 92.707L9.14453 94.8672L8.52734 97.3359L6.67578 100.113L6.05859 100.73L2.97266 100.113L1.42969 98.8789L0.503906 96.7188V94.8672L1.73828 93.0156L3.28125 92.0898L6.05859 91.1641L10.3789 87.4609L18.4023 79.4375L18.7109 77.2773L19.0195 30.9883L19.3281 30.6797H80.1211L79.1953 32.2227L69.6289 41.7891L67.4688 42.0977H30.4375V67.4023H31.0547L31.6719 66.168L38.1523 59.6875L39.3867 58.1445L40.0039 54.75L42.4727 52.5898L43.0898 52.2812H44.9414L46.793 53.5156L47.7188 54.75L48.3359 58.4531L51.4219 61.5391L53.8906 63.6992L55.125 63.082L91.5391 26.668L91.8477 25.7422H69.6289L70.2461 24.5078L72.4062 22.0391L82.5898 11.8555H120.855V12.7812L74.2578 59.3789H73.6406L73.0234 60.6133L70.2461 63.3906L67.7773 65.5508L61.9141 71.4141L63.1484 73.2656L69.0117 79.1289L69.6289 79.4375L70.2461 78.2031L79.5039 68.9453L81.9727 66.7852L83.207 65.5508L83.5156 55.6758L84.75 53.5156L97.7109 40.5547L99.8711 38.0859L104.5 33.7656L109.129 28.8281L111.598 26.668L113.758 24.1992L124.25 13.707L126.719 11.5469L131.656 6.60938L132.582 2.90625L134.434 0.746094L135.051 0.4375ZM82.8984 80.6719L80.4297 82.832L79.5039 83.7578V84.375H78.8867L77.0352 86.5352L77.3438 87.7695L78.8867 89.6211H79.5039V90.2383L81.9727 92.3984L83.5156 93.6328V80.6719H82.8984Z" fill="white"/>
<path d="M109.438 60.9219H110.055L110.363 73.2656V121.715L27.3516 122.023L27.6602 120.789L54.8164 93.6328L57.2852 91.4727L64.0742 84.6836L65.3086 85.3008L71.4805 91.4727L70.8633 93.0156L68.0859 96.1016L66.543 97.3359L65.3086 98.8789L62.8398 101.039L53.8906 109.988L53.582 110.914L70.8633 110.605H85.9844L98.9453 110.914V102.582L99.2539 71.1055L103.266 67.4023L105.426 64.9336L109.438 60.9219Z" fill="white"/>
<path d="M199.855 15.8672H218.988L223 17.1016L226.086 19.2617L227.938 22.0391L228.555 23.582L228.863 26.9766V48.2695L228.246 51.0469L226.395 53.8242L227.32 59.0703L229.789 69.5625L230.098 71.7227H217.137L215.902 67.4023L214.359 58.4531L213.742 57.5273L212.816 57.2188L212.508 71.7227H199.855L199.547 68.3281V16.793L199.855 15.8672ZM212.816 26.3594V46.7266H215.285L215.594 46.418V26.668L212.816 26.3594Z" fill="white"/>
<path d="M346.129 15.8672H365.57L369.273 17.1016L372.051 18.9531L373.902 21.1133L374.828 23.2734L375.137 24.8164V48.8867L373.902 52.2812L372.668 53.8242L373.285 57.8359L376.371 70.4883V71.7227H363.41L362.793 69.8711L361.559 62.1562L360.633 57.8359L358.781 57.2188V71.7227L346.129 72.0312L345.82 70.1797V16.1758L346.129 15.8672ZM359.09 26.3594L358.781 45.8008L359.09 46.7266H361.867L362.176 46.418V33.457L361.867 26.9766L360.941 26.3594H359.09Z" fill="white"/>
<path d="M261.883 14.3242H265.277L268.98 14.9414L273.301 16.793L275.461 18.6445L277.312 21.7305L277.93 24.5078V63.082L277.312 65.8594L275.461 68.6367L273.301 70.4883L269.598 72.0312L267.438 72.6484L264.969 72.957H260.957L256.328 72.0312L252.625 70.1797L250.773 68.6367L248.922 64.9336L248.613 63.082V24.8164L249.23 22.0391L250.773 19.2617L252.934 17.1016L256.637 15.25L259.105 14.6328L261.883 14.3242ZM262.191 25.125L261.883 27.5938V62.4648L264.043 62.7734L264.969 62.1562L265.277 59.0703L264.969 30.6797L264.66 25.4336L264.043 25.125H262.191Z" fill="white"/>
<path d="M310.332 14.3242H313.109L317.121 14.9414L320.824 16.4844L323.293 18.3359L325.453 21.7305L326.07 25.4336V37.1602L325.762 37.4688H314.652L313.418 37.1602L313.109 36.543L312.801 25.7422L310.332 25.4336L310.023 50.1211V62.4648L312.801 62.1562L313.109 61.8477V56.9102L312.801 53.8242L311.566 52.8984V44.875L311.875 44.5664H326.07V63.082L325.453 65.8594L323.602 68.6367L321.441 70.4883L318.973 71.7227L314.035 72.957H309.098L305.395 72.3398L301.691 70.7969L299.223 68.9453L297.371 65.8594L296.754 61.8477V26.668L297.062 22.9648L298.914 19.2617L301.074 17.1016L304.777 15.25L307.246 14.6328L310.332 14.3242Z" fill="white"/>
<path d="M151.715 15.8672H171.156L174.242 16.793L177.02 18.3359L179.18 20.4961L180.414 22.9648L180.723 24.5078L181.031 38.7031V43.6406L180.723 49.5039L179.488 52.2812L177.02 54.75L173.934 56.293L168.996 57.2188L164.676 57.5273V71.7227L164.367 72.0312L152.023 71.7227L151.715 71.4141L151.406 65.5508V18.3359L151.715 15.8672ZM164.676 26.3594V47.0352L167.453 46.7266L167.762 46.418V26.9766L167.145 26.3594H164.676Z" fill="white"/>
<path d="M590.535 14.3242H594.547L597.941 14.9414L601.645 16.4844L604.422 18.6445L605.965 21.1133L606.891 24.5078V32.8398L606.273 33.1484H594.547L593.93 30.9883L593.621 25.125H591.152V32.8398L592.387 34.6914L596.09 38.3945L598.559 40.5547L601.953 43.6406L604.422 47.0352L605.965 50.1211L606.891 53.8242V63.6992L605.656 67.0938L602.879 70.1797L599.176 72.0312L595.164 72.957H588.992L585.289 72.0312L581.895 70.1797L580.043 68.6367L577.883 64.3164L577.574 62.1562V53.5156H583.438L590.535 53.8242L590.844 60.9219L591.152 62.1562L592.695 62.4648L593.621 61.8477V55.0586L592.695 53.207L588.684 49.1953L586.215 47.0352L581.586 42.4062L579.117 38.3945L577.883 34.3828L577.574 31.6055V26.9766L578.191 22.3477L579.734 19.2617L581.895 17.1016L585.598 15.25L587.758 14.6328L590.535 14.3242Z" fill="white"/>
<path d="M451.051 14.3242H455.68L459.074 14.9414L462.16 16.1758L464.938 18.3359L466.789 21.1133L467.406 22.3477L467.715 24.1992L468.023 32.5312L467.406 33.1484H455.371L454.754 31.2969L454.445 25.7422L452.285 25.4336L451.977 27.5938V31.9141L452.902 34.0742L458.766 39.9375L461.234 42.0977L464.012 44.875L466.48 49.1953L467.406 51.6641L467.715 53.207V64.3164L466.48 67.4023L464.938 69.2539L461.543 71.4141L457.531 72.6484L455.68 72.957H450.434L446.422 72.0312L442.719 70.1797L441.176 68.9453L439.633 66.7852L438.707 63.3906V53.5156H444.879L451.359 53.8242L451.668 59.9961L451.977 62.1562H454.445L454.754 61.8477V55.0586L453.52 52.8984L451.359 50.7383L448.891 48.5781L443.645 43.6406L441.176 40.5547L439.324 36.543L438.707 33.457V24.5078L439.633 21.1133L441.484 18.3359L443.645 16.4844L447.348 14.9414L451.051 14.3242Z" fill="white"/>
<path d="M498.574 14.3242H502.895L507.215 15.25L510.918 17.1016L513.387 19.5703L514.621 22.0391L514.93 23.2734V32.8398L514.312 33.1484H503.512L502.586 32.2227L501.969 25.4336L499.5 25.125L499.191 27.2852V32.2227L500.426 34.6914L505.363 39.3203L508.449 42.0977L510.918 44.5664L513.695 48.8867L514.93 52.5898L515.238 56.6016V62.4648L514.621 65.8594L512.77 68.6367L510.609 70.4883L507.215 72.0312L503.203 72.957H497.648L493.945 72.0312L489.625 69.8711L487.465 67.4023L486.23 64.3164L485.922 62.4648V53.5156H491.168L498.574 53.8242L499.191 61.8477L499.5 62.1562H501.66L501.969 61.5391L502.277 56.293L501.352 53.5156L496.723 48.8867L494.254 46.7266L489.625 42.0977L487.156 37.7773L486.23 34.6914L485.922 30.0625L486.23 23.582L487.465 20.1875L490.242 17.1016L493.945 15.25L496.105 14.6328L498.574 14.3242Z" fill="white"/>
<path d="M534.68 15.5586H548.566L559.676 15.8672V26.0508L548.566 26.3594L547.641 26.0508V36.8516H558.75L559.059 37.1602L558.75 47.0352L558.133 47.3438H547.332L547.641 61.2305L559.676 61.5391V71.4141L559.367 71.7227L534.68 72.0312L534.371 71.7227V15.8672L534.68 15.5586Z" fill="white"/>
<path d="M405.379 15.5586H411.859L420.191 15.8672L420.5 16.1758V25.7422L420.191 26.0508L415.562 26.3594H408.156V36.8516H419.574V47.0352L418.648 47.3438H408.156V61.5391H420.5V71.1055L419.883 71.7227L395.504 72.0312L395.195 71.7227L394.887 19.2617L395.195 15.8672L405.379 15.5586Z" fill="white"/>
<path d="M82.5898 11.8555H120.855V12.7812L74.2578 59.3789H73.6406L73.0234 60.6133L70.2461 63.3906L69.6289 63.082L69.3203 61.2305L69.6289 59.9961L67.7773 60.3047H65.3086L64.0742 59.6875L60.0625 60.3047L58.5195 59.9961L60.3711 57.8359L91.5391 26.668L91.8477 25.7422H69.6289L70.2461 24.5078L72.4062 22.0391L82.5898 11.8555Z" fill="white"/>
<path d="M128.57 19.5703H129.188V58.4531L116.535 71.1055L115.301 71.4141L114.992 69.5625L115.301 48.8867L112.832 51.0469L111.289 52.8984L94.0078 70.1797L91.5391 72.3398L90.6133 73.2656H89.9961L89.6875 59.0703L91.8477 56.6016L98.9453 49.5039L100.488 47.6523L102.957 45.4922L126.719 21.7305L127.336 20.8047H127.953L128.57 19.5703Z" fill="white"/>
<path d="M64.0742 84.6836L65.3086 85.3008L71.4805 91.4727L70.8633 93.0156L68.0859 96.1016L66.543 97.3359L65.3086 98.8789L62.8398 101.039L53.8906 109.988L53.582 111.223H59.4453L61.6055 112.148L68.0859 112.457H71.7891L72.0977 113.691H68.3945L69.6289 114.926L73.0234 116.16L76.1094 117.395L80.1211 118.32L81.9727 119.555L82.2812 120.48L81.0469 121.715L27.3516 122.023L27.6602 120.789L54.8164 93.6328L57.2852 91.4727L64.0742 84.6836Z" fill="white"/>
<path d="M202.324 43.0234L206.027 43.332L206.645 43.9492L205.102 45.4922H207.57L209.422 45.1836L210.965 46.1094V47.0352L214.051 47.3438L214.977 47.0352L216.52 47.3438H216.828L217.754 46.418L224.543 45.1836L226.703 45.8008L226.086 44.2578L225.777 43.6406L227.32 43.9492L228.555 44.5664V50.1211L226.703 53.5156L226.395 54.4414L227.938 61.5391L230.098 71.1055V71.7227H217.137L215.902 67.4023L214.359 58.4531L213.742 57.5273L212.816 57.2188L212.508 71.7227H199.855V54.75L200.781 52.2812L201.707 43.6406L202.324 43.0234Z" fill="white" fill-opacity="0.788235"/>
<path d="M49.2617 69.2539L50.8047 70.7969L54.1992 73.8828V74.5L55.4336 75.1172L56.3594 76.043L56.0508 77.5859L19.3281 114.309H19.0195V88.3867L21.1797 85.918L30.1289 76.9688V87.7695L32.5977 85.6094L48.6445 69.5625L49.2617 69.2539Z" fill="white"/>
<path d="M498.574 14.3242H502.895L507.215 15.25L510.918 17.1016L513.387 19.5703L514.621 22.0391L514.93 23.2734V32.8398L514.312 33.1484H503.512L502.586 32.2227L501.969 25.4336L499.5 25.125L499.191 27.2852V32.2227L500.426 34.6914L505.363 39.3203L508.449 42.0977L510.609 44.2578L509.375 44.5664L506.906 43.9492V43.332L504.746 43.0234L503.512 43.9492L494.871 43.332L493.945 44.875L494.254 46.418L492.094 44.5664L489.625 42.0977L487.156 37.7773L486.23 34.6914L485.922 30.0625L486.23 23.582L487.465 20.1875L490.242 17.1016L493.945 15.25L496.105 14.6328L498.574 14.3242Z" fill="white"/>
<path d="M154.184 38.3945L155.109 38.7031L154.801 40.8633L156.652 39.9375L159.43 40.5547L161.59 41.1719H162.824L164.367 43.0234V43.9492V47.0352L169.305 45.8008L169.922 43.9492L171.156 43.332V42.7148L172.699 42.4062H177.328L178.871 43.0234L179.488 44.2578L178.871 42.0977L177.637 40.5547L178.871 40.8633L180.723 42.0977V49.5039L179.488 52.2812L177.02 54.75L173.934 56.293L168.996 57.2188L164.676 57.5273V71.7227L164.367 72.0312L152.023 71.7227L151.715 71.4141V52.5898L152.641 50.7383L153.258 46.418L153.566 39.6289L154.184 38.3945Z" fill="white"/>
<path d="M255.711 45.8008H256.328V46.418H258.488L259.414 47.9609L260.34 52.5898L261.574 54.4414L261.883 62.4648H264.043L264.66 62.1562L264.969 60.6133L265.277 52.2812L266.203 51.9727L266.82 50.1211L268.055 48.8867V50.4297L268.98 49.5039L272.066 48.5781L274.535 49.8125L273.918 47.6523L275.77 48.2695L276.387 48.8867L277.004 50.7383L277.93 51.0469V63.082L277.312 65.8594L275.461 68.6367L273.301 70.4883L269.598 72.0312L267.438 72.6484L264.969 72.957H260.957L256.328 72.0312L252.625 70.1797L250.773 68.6367L248.922 64.9336V60.6133H249.848L250.465 56.9102L250.773 50.4297L251.699 46.7266L253.859 46.1094L255.711 45.8008Z" fill="white"/>
<path d="M451.051 14.3242H455.68L459.074 14.9414L462.16 16.1758L464.938 18.3359L466.789 21.1133L467.406 22.3477L467.715 24.1992L468.023 32.5312L467.406 33.1484H455.371L454.754 31.2969L454.445 25.7422L452.285 25.4336L451.977 27.5938V31.9141L452.902 34.0742L458.766 39.9375L461.234 42.0977L461.543 42.7148L460 42.0977L454.754 40.2461L454.137 39.6289L451.359 39.3203L449.816 39.0117L447.656 38.7031H445.188L443.027 37.7773L443.336 41.4805L444.57 43.0234L444.262 44.2578L441.176 40.5547L439.324 36.543L438.707 33.457V24.5078L439.633 21.1133L441.484 18.3359L443.645 16.4844L447.348 14.9414L451.051 14.3242Z" fill="white"/>
<path d="M603.188 50.7383H605.348L605.965 51.3555L606.273 53.8242H606.891V63.6992L605.656 67.0938L602.879 70.1797L599.176 72.0312L595.164 72.957H588.992L585.289 72.0312L581.895 70.1797L580.043 68.6367L577.883 64.3164L577.574 62.1562V53.5156H583.438L590.535 53.8242L590.844 60.9219L591.152 62.1562L592.695 62.4648L593.621 61.8477L593.93 55.0586L594.855 52.5898L595.473 52.2812L600.41 51.6641L603.188 50.7383Z" fill="white"/>
<path d="M135.051 0.4375H137.828L139.988 1.67188L140.914 3.83203L140.605 6.60938L139.062 8.46094L138.445 8.76953L135.051 9.07812L133.816 10.3125H133.199L132.582 11.5469L126.102 18.0273L123.633 20.1875L114.684 29.1367L114.375 29.7539H113.758L113.141 30.9883L110.055 33.7656L87.5273 56.293L87.2188 93.3242H86.9102L86.6016 80.0547L85.6758 80.9805L84.75 82.832H83.8242V91.7812H83.5156V80.6719L82.5898 80.3633L82.2812 78.2031L80.7383 76.6602L78.5781 76.3516L77.6523 75.7344L76.1094 76.043L74.5664 77.2773L71.1719 77.5859L73.0234 75.4258L79.5039 68.9453L81.9727 66.7852L83.207 65.5508L83.5156 55.6758L84.75 53.5156L97.7109 40.5547L99.8711 38.0859L104.5 33.7656L109.129 28.8281L111.598 26.668L113.758 24.1992L124.25 13.707L126.719 11.5469L131.656 6.60938L132.582 2.90625L134.434 0.746094L135.051 0.4375Z" fill="white"/>
<path d="M346.129 15.8672H365.57L369.273 17.1016L372.051 18.9531L373.902 21.1133L374.828 23.2734L375.137 24.8164V48.8867H374.828L374.52 35L373.285 34.0742L372.977 32.5312L371.434 31.9141L365.879 31.6055V32.2227L364.336 32.5312L363.719 34.0742L363.102 35.9258H362.484L362.176 36.543L361.559 26.9766L359.09 26.3594V43.332H358.781V33.1484L357.238 32.8398L354.77 32.2227V31.2969L350.449 31.6055L350.141 32.8398L348.906 33.1484L347.672 35.3086L347.363 36.543L346.746 38.7031H346.129V70.1797H345.82V16.1758L346.129 15.8672Z" fill="white"/>
<path d="M310.332 14.3242H313.109L317.121 14.9414L320.824 16.4844L323.293 18.3359L325.453 21.7305L326.07 25.4336V37.1602L325.762 37.4688H314.652L313.418 37.1602L313.109 36.543L312.801 25.7422L310.332 25.4336L310.023 50.1211H309.715V27.2852L305.395 26.9766H301.383L297.68 30.6797H297.062V35.3086H296.754V26.668L297.062 22.9648L298.914 19.2617L301.074 17.1016L304.777 15.25L307.246 14.6328L310.332 14.3242Z" fill="white"/>
<path d="M539.309 45.1836L544.863 45.4922L545.789 46.418V47.3438L547.023 47.9609L547.332 52.2812L547.641 61.2305L559.676 61.5391V71.4141L559.367 71.7227L534.68 72.0312L534.371 71.7227V55.3672L534.68 51.9727L536.223 48.2695L537.457 46.1094L539.309 45.1836Z" fill="white"/>
<path d="M19.3281 30.6797H80.1211L79.1953 32.2227L69.6289 41.7891L67.4688 42.0977H59.1367L34.1406 41.7891L35.6836 40.5547L35.9922 40.2461L38.7695 39.6289L39.3867 39.0117L43.0898 38.3945L42.7812 37.7773H41.2383L40.3125 35.6172L39.0781 34.6914L35.9922 34.3828L33.2148 32.8398L29.5117 31.6055L27.043 31.2969H19.6367L19.3281 67.7109H19.0195V30.9883L19.3281 30.6797Z" fill="white"/>
<path d="M405.379 15.5586H411.859L420.191 15.8672L420.5 16.1758V25.7422L420.191 26.0508L415.562 26.3594H408.156V36.8516H419.574V39.9375H419.266L418.957 37.4688L414.02 37.7773L412.168 38.3945L410.625 38.7031H408.465L407.23 38.0859L405.996 35.3086L403.219 34.6914L400.75 34.3828L399.207 34.6914L398.59 35.9258H397.973L396.121 41.4805L395.812 43.332L395.504 50.1211H395.195L394.887 25.4336V19.2617L395.195 15.8672L405.379 15.5586Z" fill="white"/>
<path d="M109.438 60.9219H110.055L110.363 73.2656V121.715H110.055V119.555L109.129 119.246L108.82 117.086L108.512 111.531L107.586 107.828L106.043 104.742L105.734 103.508L104.191 101.039V98.8789L102.957 96.1016L102.34 95.1758V93.9414H101.723L100.797 91.4727L99.2539 91.1641V71.1055L103.266 67.4023L105.426 64.9336L109.438 60.9219Z" fill="white"/>
<path d="M301.383 26.668H306.938L309.715 27.2852V56.6016L308.172 55.6758L306.938 54.4414L303.234 52.8984L301.383 52.2812L301.691 51.6641L303.543 51.3555L303.234 50.7383L301.074 50.4297L299.84 50.1211L298.914 50.4297L298.605 53.207L297.988 55.0586L297.371 54.75L297.062 61.8477H296.754V35.3086L297.062 30.6797L298.605 29.1367L300.148 27.9023L301.383 26.668Z" fill="white"/>
<path d="M273.609 23.2734H275.152V23.8906L277.004 24.5078L277.621 25.125L277.93 30.6797V51.0469L276.695 50.7383L275.77 48.5781L274.535 48.2695V49.8125L271.758 48.8867L268.672 50.1211L267.746 50.7383V49.1953L266.203 51.9727L265.586 52.2812L265.277 59.0703H264.969V27.5938H265.895L266.203 26.3594V24.1992L267.438 23.582H273.301L273.609 23.2734Z" fill="white"/>
<path d="M21.7969 60.9219H22.4141L23.3398 62.7734L27.3516 66.7852L27.6602 67.4023L25.8086 68.0195L25.5 68.6367L26.4258 68.9453L26.7344 69.5625L28.5859 70.1797L29.2031 71.7227L31.0547 72.0312L30.4375 73.2656L23.3398 80.3633H22.7227L22.4141 81.2891L19.9453 83.4492L12.5391 90.8555L12.2305 91.4727H11.6133L10.9961 92.707L9.14453 94.8672L8.52734 97.3359L6.67578 100.113L6.05859 100.73L2.97266 100.113L1.42969 98.8789L0.503906 96.7188V94.8672L1.73828 93.0156L3.28125 92.0898L6.05859 91.1641L10.3789 87.4609L18.4023 79.4375L18.7109 77.2773L19.0195 67.7109H19.6367L20.5625 64.625L21.4883 61.2305L21.7969 60.9219Z" fill="white"/>
<path d="M403.527 59.3789H405.688L406.922 62.1562L408.156 62.4648H410.934L412.785 61.5391H420.5V71.1055L419.883 71.7227L395.504 72.0312V63.6992L396.738 60.9219L397.664 59.6875H398.59V60.9219L402.293 60.6133L403.219 61.2305L405.379 61.5391L405.07 60.6133V59.9961L403.527 59.6875V59.3789Z" fill="white"/>
<path d="M261.883 14.3242H265.277L268.98 14.9414L273.301 16.793L275.461 18.6445L277.312 21.7305L277.93 24.5078V30.6797H277.621L277.312 25.125L275.152 23.8906V23.2734L273.301 23.8906H266.82L266.512 24.1992V26.668L265.895 27.5938H264.969V30.6797H264.66V25.4336L262.191 25.125V27.5938L261.574 28.8281L261.266 28.2109L261.574 26.668H260.957V24.5078L259.723 23.2734L257.562 22.9648H255.711L252.934 24.1992L252.316 24.8164L251.699 26.3594L251.082 26.668L250.465 34.6914L249.848 36.8516H249.539L248.613 34.0742V24.8164L249.23 22.0391L250.773 19.2617L252.934 17.1016L256.637 15.25L259.105 14.6328L261.883 14.3242Z" fill="white"/>
<path d="M390.566 96.4102H393.652L394.578 96.7188L396.43 103.508L397.047 106.594L397.973 105.668L400.441 96.7188L400.75 96.4102H404.762L405.07 96.7188L404.762 114.617L403.527 114.926L401.676 114.617L401.367 106.594H400.75L399.516 111.531L398.59 114.617H397.047L395.812 111.84L394.27 107.52L393.652 107.211V114.309L393.344 114.617H390.566L390.258 96.7188L390.566 96.4102Z" fill="white"/>
<path d="M64.0742 84.6836L65.3086 85.3008L71.4805 91.4727L70.8633 93.0156L68.0859 96.1016L66.543 97.3359L65.3086 98.8789L62.8398 101.039L61.2969 102.582L60.0625 103.508L59.7539 103.199L59.4453 101.039L56.668 100.73L53.582 99.8047L54.5078 98.2617L56.668 97.9531L57.9023 97.6445L53.582 97.3359L51.1133 98.2617L27.9688 121.406L29.2031 122.023H27.3516L27.6602 120.789L54.8164 93.6328L57.2852 91.4727L64.0742 84.6836Z" fill="white"/>
<path d="M349.215 55.9844H352.609L351.684 57.2188H350.449V57.8359H348.906V58.4531L351.375 58.1445H354.77L356.93 58.7617V56.6016L357.855 56.9102L358.473 57.5273L358.781 71.7227L346.129 72.0312V60.9219L347.672 58.7617L348.289 56.9102L349.215 55.9844Z" fill="white" fill-opacity="0.788235"/>
<path d="M463.395 64.0078H465.863L467.098 64.625L466.789 66.7852L464.938 69.2539L461.543 71.4141L457.531 72.6484L455.68 72.957H450.434L446.422 72.0312L442.719 70.1797V68.0195H442.102L442.41 65.8594L443.027 65.2422L446.422 65.5508L451.977 64.9336L454.445 65.2422L458.148 64.9336L460.617 64.625L462.777 64.3164L463.395 64.0078Z" fill="white"/>
<path d="M49.2617 69.2539L50.8047 70.7969L54.1992 73.8828V74.5L55.4336 75.1172L56.3594 76.043L56.0508 77.5859L48.3359 85.3008L48.0273 84.375H47.4102L46.793 83.7578L46.4844 84.6836L45.25 84.375L44.9414 84.9922H41.5469L38.4609 83.4492L40.0039 81.9062L40.9297 81.5977L40.0039 80.9805L38.7695 80.6719L38.1523 80.0547L48.6445 69.5625L49.2617 69.2539Z" fill="white"/>
<path d="M363.102 56.9102L363.719 58.1445L363.102 59.9961L363.41 59.6875L366.805 59.3789H370.508H371.434L370.816 58.1445L372.977 58.7617L373.285 60.3047H373.902L376.371 70.4883V71.7227H363.41L362.793 69.8711L361.559 62.1562V59.0703L362.793 57.8359L363.102 56.9102Z" fill="white"/>
<path d="M434.078 96.4102L437.164 96.7188L437.781 97.3359L439.324 101.965L441.176 105.668L441.484 96.4102H443.645L444.879 96.7188V114.617L444.57 114.926H442.41L441.176 114.309L438.09 107.211L437.781 106.285H437.164V114.617L435.93 114.926L434.078 114.617V96.4102Z" fill="white"/>
<path d="M293.051 96.4102H295.211L296.445 97.0273L298.605 102.891L300.148 105.977L300.457 96.4102H303.543V114.617L302 114.926L300.457 114.309L298.914 111.84L296.754 106.902L296.137 106.594V114.617L295.828 114.926H293.668L293.051 114.617L292.742 96.7188L293.051 96.4102Z" fill="white"/>
<path d="M311.875 44.5664H326.07V63.082H325.762V52.8984L322.676 54.1328L319.281 55.0586L314.652 55.6758L315.578 54.4414H316.195L316.504 53.207H315.27L314.652 54.1328L313.727 54.4414L313.418 56.9102H313.109L312.801 53.8242L311.566 52.8984V44.875L311.875 44.5664Z" fill="white"/>
<path d="M208.188 96.4102H214.977L217.137 97.6445L218.371 99.4961V103.816L217.754 104.742H217.137L218.68 107.211L218.988 108.137V110.605L217.754 113.074L215.594 114.617L213.125 114.926H209.113L208.496 114.617L208.188 112.457V96.4102ZM211.582 99.1875L211.273 99.4961V103.508L211.582 103.816H213.742L215.285 102.891V100.422L214.359 99.4961L211.582 99.1875ZM211.273 106.902V111.531L211.582 112.148H214.051L215.285 111.531L215.902 110.297L215.594 107.828L214.668 106.902H211.273Z" fill="white"/>
<path d="M551.652 96.4102H559.367L561.219 97.6445L562.145 98.8789L562.453 99.8047V103.816L561.527 104.742L561.836 105.977L562.453 106.902L562.762 113.383L562.453 114.926H559.676L559.367 114.617L559.059 107.211L555.355 106.902L555.047 114.617L552.887 114.926L551.961 114.617L551.652 113.074V96.4102ZM555.355 99.1875L555.047 99.4961V103.508L555.664 103.816H558.441L559.367 103.199V100.113L557.824 99.1875H555.355Z" fill="white"/>
<path d="M325.145 24.5078L326.07 25.4336V37.1602L325.762 37.4688H314.652L313.418 37.1602V29.1367L315.578 28.2109L316.812 27.5938L320.516 27.2852L322.367 26.9766L324.219 25.7422L325.145 24.5078Z" fill="white"/>
<path d="M192.141 96.1016L195.227 96.4102L197.078 97.6445L198.312 99.8047L198.621 107.52L198.312 111.223L197.078 113.383L195.227 114.617L192.449 114.926L189.98 114.309L188.129 112.148L187.512 109.68V100.422L188.746 97.9531L190.906 96.4102L192.141 96.1016ZM191.215 99.4961L190.906 99.8047V111.531L191.832 112.148H193.992L194.918 111.531L195.227 109.988V100.73L194.918 99.8047L194.301 99.4961H191.215Z" fill="white"/>
<path d="M154.184 96.1016L156.961 96.4102L158.812 97.9531L160.047 100.422V102.582H156.961L156.035 99.8047L153.875 99.4961L152.641 99.8047V110.297L152.949 111.531L153.566 111.84H155.418L156.652 110.914V109.371L154.184 108.445L154.492 105.977L156.652 105.668L159.738 105.977L160.047 106.285V110.914L158.812 113.383L156.961 114.617L153.875 114.926L151.715 114.309L150.172 113.074L149.246 110.914V101.348L149.863 98.8789L151.406 97.0273L154.184 96.1016Z" fill="white"/>
<path d="M230.098 96.4102H235.035L236.27 104.434L237.504 112.766V114.617H235.035L234.418 113.074H231.332L230.406 114.617H227.629L227.938 110.914L229.172 103.199L230.098 96.4102ZM232.258 104.742L231.641 106.902L231.332 109.988H233.801V107.828L233.184 104.742H232.258Z" fill="white"/>
<path d="M477.59 96.1016L480.676 96.7188L482.219 97.9531L483.145 99.4961L483.453 102.273L483.145 102.582H480.367L480.059 102.273L479.75 99.8047L477.281 99.4961H476.664L476.355 101.965L477.898 103.508L481.293 105.668L482.836 107.52L483.453 108.754V110.914L482.527 112.766L480.367 114.617L479.133 114.926H476.973L474.504 114L472.961 112.148L472.652 111.223V108.754L474.195 108.445L476.047 108.754L476.664 111.531L478.516 111.84L479.75 111.223L480.059 109.988L479.133 108.137L475.738 105.977L473.27 103.816L472.961 103.199V99.8047L473.887 97.9531L475.43 96.7188L477.59 96.1016Z" fill="white"/>
<path d="M332.859 96.1016L342.117 96.4102V99.1875H336.254V103.816H341.5L341.809 104.125V106.594L341.5 106.902L336.562 107.211V111.84L342.117 112.148V114.617L341.809 114.926H333.168L332.859 114.617V96.1016Z" fill="white"/>
<path d="M313.109 96.4102H316.504L316.812 97.9531L318.047 105.977L318.355 106.902L318.664 106.594L320.207 96.7188L320.516 96.4102H323.602L323.293 99.8047L321.133 111.84L320.516 114.617L320.207 114.926H317.121L316.195 114.309L314.344 104.742L313.109 97.9531V96.4102Z" fill="white"/>
<path d="M523.262 96.1016L526.039 96.4102L527.891 97.6445L529.125 99.4961L529.742 101.965L529.125 102.582H526.348L526.039 101.965V100.113L525.113 99.4961H522.645L522.336 101.965L523.879 103.508L526.965 105.359L529.125 107.828L529.434 108.754V111.223L528.199 113.383L526.348 114.617L523.262 114.926L521.102 114.309L519.559 112.766L518.633 110.297L518.941 108.754L519.559 108.445H521.41L522.027 108.754L522.645 111.531L524.805 111.84L526.039 110.914L525.73 108.754L520.793 105.051L519.25 103.199V99.4961L520.484 97.6445L522.027 96.4102L523.262 96.1016Z" fill="white"/>
<path d="M354.77 96.4102H358.473L360.016 97.3359L361.559 99.1875L362.176 101.965L361.559 102.582H359.09L358.781 102.273L358.473 100.113L357.547 99.4961H355.695L354.77 100.113V102.273L357.855 104.434L360.324 106.285L361.559 107.828L361.867 108.445V111.531L360.324 113.691L357.855 114.926H355.387L352.918 113.691L351.375 111.223L351.066 109.371L351.684 108.754L354.152 108.445L354.77 110.605L355.078 111.531L357.238 111.84L358.473 111.531L358.781 109.988L357.547 108.137L354.461 105.977L351.992 103.816L351.375 102.273L351.684 99.4961L352.918 97.6445L354.77 96.4102Z" fill="white"/>
<path d="M414.945 96.4102H423.895L424.203 97.0273L423.895 99.1875H418.031V103.816H423.277L423.586 105.051L423.277 106.594L418.34 106.902V111.84L423.895 112.148V114.617L423.586 114.926H415.254L414.945 114.617V96.4102Z" fill="white"/>
<path d="M156.961 61.2305L160.973 61.5391L162.516 63.082L163.133 64.0078L163.75 66.168L164.367 66.7852L164.676 71.7227L164.367 72.0312L154.492 71.7227L153.258 71.4141L152.949 70.7969L153.258 64.625L154.184 61.8477L156.961 61.2305Z" fill="white"/>
<path d="M585.289 96.1016L588.992 96.4102V111.84H594.238L594.547 112.148L594.855 114.617L594.547 114.926H585.906L585.598 114.617L585.289 111.531V96.1016Z" fill="white"/>
<path d="M9.45312 88.3867L13.1562 89.0039V90.2383L12.2305 91.4727H11.6133L10.9961 92.707L9.14453 94.8672L8.52734 97.3359L6.67578 100.113L6.05859 100.73L2.97266 100.113L1.42969 98.8789L0.503906 96.7188V94.8672L1.73828 93.0156L3.28125 92.0898L6.05859 91.1641L9.45312 88.3867Z" fill="white"/>
<path d="M169.613 96.1016L173.008 96.4102V111.84L178.562 112.148V114.617L177.945 114.926H170.23L169.613 114.617L169.305 101.965V96.4102L169.613 96.1016Z" fill="white"/>
<path d="M453.828 96.4102H464.32L464.629 97.0273L464.32 99.1875H460.617V114.926H457.531V99.1875H454.137L453.52 98.8789V96.7188L453.828 96.4102Z" fill="white"/>
<path d="M247.07 96.4102H250.773L251.082 97.3359L250.773 112.148L256.328 111.84V114.617L254.785 114.926H248.613L247.379 114.617L247.07 96.4102Z" fill="white"/>
<path d="M370.816 96.4102H381.309V99.1875L377.914 99.4961V114.617L377.297 114.926H374.828L374.52 114.617L374.211 99.4961L371.434 99.1875L370.816 98.8789L370.508 96.7188L370.816 96.4102Z" fill="white"/>
<path d="M509.684 66.4766H512.152L512.77 67.4023L512.461 68.9453L509.992 70.7969L506.289 72.3398L503.203 72.957H497.648L493.945 72.0312L492.711 71.4141L493.02 69.5625L494.871 68.6367L497.957 68.3281L506.906 68.0195L508.758 67.7109L509.992 68.0195L509.684 66.4766Z" fill="white"/>
<path d="M205.41 64.625L209.113 64.9336L210.656 66.168L211.891 69.2539L212.199 69.5625V71.7227H207.57L200.473 71.4141L201.09 67.4023L201.707 65.2422L202.633 64.9336L205.41 64.625Z" fill="white"/>
<path d="M279.473 96.4102H282.867V114.617L282.559 114.926L279.473 114.617V96.4102Z" fill="white"/>
<path d="M199.855 15.8672H218.988L223 17.1016L226.086 19.2617L226.395 20.1875L223.309 18.6445L221.766 18.3359H217.445L211.273 17.4102H208.496L204.793 16.793L202.941 17.4102L202.016 18.6445L201.707 20.4961L201.398 21.1133L200.781 25.4336L200.164 26.9766L199.855 31.6055H199.547V16.793L199.855 15.8672Z" fill="white"/>
<path d="M221.457 66.4766L222.691 66.7852H226.086L227.938 67.7109V68.3281L229.48 68.6367L230.098 71.7227H217.137L216.52 68.9453L217.754 68.3281L218.68 66.7852L221.457 66.4766Z" fill="white"/>
<path d="M559.059 66.168H559.367V71.7227H534.988L536.223 69.2539L539.309 68.6367H540.852L539.926 69.2539L539.617 69.5625L541.777 69.2539L545.172 69.5625H556.281L557.516 69.2539L557.207 68.0195L558.75 66.4766L559.059 66.168Z" fill="white"/>
<path d="M34.1406 116.469L36.918 116.777L38.4609 117.703L40.6211 118.938L42.1641 119.555L42.4727 120.48L41.5469 121.715H27.6602L29.5117 119.555L32.2891 116.777L34.1406 116.469Z" fill="white"/>
<path d="M151.715 15.8672H171.156V16.4844H160.047L156.344 17.4102H153.566L153.258 26.668L152.949 27.5938H152.023L151.715 65.5508H151.406V18.3359L151.715 15.8672Z" fill="white"/>
<path d="M22.1055 102.582H24.2656L25.8086 103.199V105.359L25.5 107.52H24.8828L24.5742 109.062L21.1797 112.457H19.9453L19.6367 109.68L20.2539 106.594L20.5625 104.125L21.1797 102.891L22.1055 102.582Z" fill="white"/>
<path d="M188.438 98.2617L189.055 99.4961H191.215L190.906 111.223H190.598L189.98 109.371L189.055 109.68L189.363 111.84L188.746 113.074L187.82 111.531L187.512 109.68V100.422L188.438 98.2617Z" fill="white"/>
<path d="M493.328 111.84L495.18 112.148L496.105 112.766V114.926L495.488 116.469L494.562 117.395H492.402V116.469L493.637 115.852V115.234L492.402 114.309L492.094 113.074L492.402 112.148L493.328 111.84Z" fill="white"/>
<path d="M279.473 98.8789L280.707 99.8047L280.398 100.422L281.016 103.816V106.902L280.09 109.68L279.781 114.617H279.473V98.8789Z" fill="white"/>
<path d="M29.8203 76.9688H30.1289V87.7695L30.7461 88.0781L29.8203 88.3867L29.5117 78.5117L28.5859 79.4375L27.6602 81.9062L26.7344 82.5234L25.1914 82.832L19.6367 88.3867V87.4609L29.2031 77.8945L29.8203 76.9688Z" fill="white"/>
<path d="M555.355 43.332H557.207L558.133 43.9492L558.75 47.0352L554.43 46.7266L553.812 45.1836L554.43 44.875L554.738 43.6406L555.355 43.332Z" fill="white"/>
<path d="M391.801 105.668H393.961L394.578 105.977V107.52L393.652 107.211V114.309H393.344V110.605L392.109 110.297L391.492 108.754L391.184 106.594L391.801 105.668Z" fill="white"/>
<path d="M169.305 96.4102H169.613L169.922 100.113L170.848 101.039V104.742L170.539 105.359L169.922 114.617H169.613L169.305 101.965V96.4102Z" fill="white"/>
<path d="M585.289 97.3359H585.598V102.273H586.523L587.141 103.508L586.832 105.051L585.906 107.828L585.598 111.531H585.289V97.3359Z" fill="white"/>
<path d="M19.0195 67.7109L20.2539 69.2539L20.5625 71.4141L20.2539 75.1172L19.0195 76.6602V67.7109Z" fill="white"/>
<path d="M538.383 112.148H541.469V114.309L541.16 114.617H538.383L538.074 114.309V112.457L538.383 112.148Z" fill="white"/>
<path d="M603.188 112.148H606.273L606.582 112.457L606.273 114.617H603.496L603.188 114.309V112.148Z" fill="white"/>
<path d="M231.949 102.891L234.109 103.199L234.727 103.508V104.434H235.344V105.051L233.492 106.594H233.184V104.742L232.258 105.051L231.949 106.902H231.641V103.508L231.949 102.891Z" fill="white"/>
<path d="M509.684 66.4766H512.152L512.77 67.4023L512.461 68.9453L510.609 70.4883V69.5625L509.684 66.4766Z" fill="white"/>
<path d="M490.242 66.4766H492.094L493.02 66.7852H497.648L496.414 67.4023L492.402 68.0195L490.859 67.4023L490.551 69.2539L489.934 68.0195L490.242 66.4766Z" fill="white"/>
<path d="M572.637 112.148H575.414L575.105 113.691L573.562 114.309H572.02L572.328 112.457L572.637 112.148Z" fill="white"/>
<path d="M195.227 101.965L196.152 102.273L196.461 104.125L196.152 107.211L195.227 107.52V101.965Z" fill="white"/>
<path d="M305.703 51.3555L306.938 51.6641L308.48 53.5156L309.715 54.4414V55.9844L308.789 55.6758L306.629 52.2812L305.703 51.3555Z" fill="white" fill-opacity="0.788235"/>
<path d="M323.602 50.1211L323.91 51.3555L321.133 52.5898L319.281 52.2812L320.207 51.6641L323.293 50.4297L323.602 50.1211Z" fill="white" fill-opacity="0.788235"/>
<path d="M464.938 62.1562L467.715 62.4648L467.098 63.6992L466.172 63.3906L462.469 63.082V62.7734L464.938 62.1562Z" fill="white" fill-opacity="0.788235"/>
<path d="M403.527 59.3789H405.688L407.23 63.082L405.996 62.7734L405.07 59.9961L403.527 59.6875V59.3789Z" fill="white"/>
<path d="M33.832 68.0195H34.7578L34.1406 69.2539L32.9062 70.4883H32.2891L32.9062 69.2539L32.5977 68.6367L33.832 68.0195Z" fill="white"/>
</svg>
